# xmcd CD database file
#
# Track frame offsets:
#	150
#	24180
#	39090
#	54515
#	65378
#	81482
#	102005
#	118184
#	134816
#	160048
#	177671
#	195863
#	211075
#	226170
#	243053
#	261815
#	271604
#	292968
#	310061
#
# Disc length: 4394 seconds
#
# Revision: 0
# Processed by: cddbd v1.5.2PL0 Copyright (c) Steve Scherf et al.
# Submitted via: CDex 1.77
#
DISCID=f4112813
DTITLE=Antti Sarpila Swing Band - 30th Anniversary
DYEAR=2012
DGENRE=Jazz
TTITLE0=Basiec Jump
TTITLE1=East of the Sun
TTITLE2=Livery Stable Blues
TTITLE3=I Would Do Anything for You
TTITLE4=I've Had My Moments
TTITLE5=I'm Crazy 'bout My Baby
TTITLE6=By and By
TTITLE7=Smoke Gets in Your Eyes
TTITLE8=Indiana
TTITLE9=Ah!  Sweet Mystery of Love
TTITLE10=Dark Eyes
TTITLE11=Too Marvelous for Words
TTITLE12=Carry Me back to Old Virginny
TTITLE13=Woodside Jump
TTITLE14=Peg o' My Heart
TTITLE15=John Brown's Body
TTITLE16=Garner's Error
TTITLE17=Home on the Range
TTITLE18=25th Anniversary Stomp
EXTD=YEAR: 2012
EXTT0=
EXTT1=
EXTT2=
EXTT3=
EXTT4=
EXTT5=
EXTT6=
EXTT7=
EXTT8=
EXTT9=
EXTT10=
EXTT11=
EXTT12=
EXTT13=
EXTT14=
EXTT15=
EXTT16=
EXTT17=
EXTT18=
PLAYORDER=
